<svg id="b3f26fed-c43f-4727-8bca-3f6b4433f2fb" data-name="Capa 1" xmlns="http://www.w3.org/2000/svg" viewBox="0 0 200 85.98"><defs><style>.e83d57c3-db60-4bd1-96ee-7c025cddc152{fill:#337dff;}.a8de948c-efc4-4396-b101-55c1981ec48f{fill:#ccc;}</style></defs><path class="e83d57c3-db60-4bd1-96ee-7c025cddc152" d="M100,1.92A23.08,23.08,0,1,1,76.92,25,23.08,23.08,0,0,1,100,1.92M100,0a25,25,0,1,0,25,25A25,25,0,0,0,100,0Z"/><path class="e83d57c3-db60-4bd1-96ee-7c025cddc152" d="M99.16,29c.21-.44.43-.86.66-1.29s.47-.84.73-1.26l8.82-15.17a1.61,1.61,0,0,1,1-.83,4.18,4.18,0,0,1,1.14-.16h5.07L113,39.15h-5.66l2-16.78c0-.35.1-.74.19-1.17s.18-.88.28-1.34l-8.66,14.88a2.57,2.57,0,0,1-1,1,2.93,2.93,0,0,1-1.38.33h-.88a2.44,2.44,0,0,1-1.31-.34,1.7,1.7,0,0,1-.78-1L90.88,19.82c0,.45-2.39,19.33-2.39,19.33H82.9l3.56-28.8H92.1a1.6,1.6,0,0,1,.56.09,1,1,0,0,1,.43.28,1.5,1.5,0,0,1,.29.58l5.07,15.18C98.73,27.32,99,28.17,99.16,29Z"/><path class="a8de948c-efc4-4396-b101-55c1981ec48f" d="M101.43,31.62c.07.23.13.46.19.71a11.39,11.39,0,0,1,.74-1.43l10-16a1,1,0,0,1,.5-.49,2.67,2.67,0,0,1,.71-.08H116l-3,24.82H110.1L112.32,21c0-.23.06-.49.12-.76s.11-.56.17-.85L102.72,35.3a1.44,1.44,0,0,1-1.3.76H101a1.12,1.12,0,0,1-1.12-.76l-6.12-16,0,.84c0,.27,0,.52-.06.76L91.42,39.15H88.49l3.05-24.82H94a2.59,2.59,0,0,1,.7.08.74.74,0,0,1,.4.49l6.16,16C101.3,31.14,101.37,31.38,101.43,31.62Z"/><path class="e83d57c3-db60-4bd1-96ee-7c025cddc152" d="M49.57,69.63c.11-.22.22-.43.34-.64s.23-.42.36-.63l4.41-7.59a.86.86,0,0,1,.49-.42,2.36,2.36,0,0,1,.58-.07h2.53L56.5,74.69H53.67l1-8.39c0-.18,0-.38.09-.59s.09-.44.14-.67l-4.33,7.44a1.29,1.29,0,0,1-.51.5,1.46,1.46,0,0,1-.69.16h-.44a1.2,1.2,0,0,1-.66-.17.92.92,0,0,1-.39-.49L45.36,65c0,.23,0,.44,0,.66s0,.4,0,.57l-1,8.44H41.44l1.78-14.41H46a.78.78,0,0,1,.28,0,.55.55,0,0,1,.22.14.87.87,0,0,1,.15.29l2.53,7.59A11.55,11.55,0,0,1,49.57,69.63Z"/><path class="e83d57c3-db60-4bd1-96ee-7c025cddc152" d="M67.54,67a3,3,0,0,1-.27,1.29,2.62,2.62,0,0,1-1,1,6.47,6.47,0,0,1-1.85.77,18.71,18.71,0,0,1-2.92.49A2.29,2.29,0,0,0,62,72.06a1.65,1.65,0,0,0,1.3.49,2.69,2.69,0,0,0,1.22-.25,3,3,0,0,0,.4-.23l.35-.22a1.38,1.38,0,0,1,.34-.18,1,1,0,0,1,.4-.07.59.59,0,0,1,.29.07.91.91,0,0,1,.24.2l.8.92a12,12,0,0,1-1.07.92,5.34,5.34,0,0,1-1.06.64,5.17,5.17,0,0,1-1.17.38,8,8,0,0,1-1.35.11A4.28,4.28,0,0,1,61,74.53a3.74,3.74,0,0,1-1.31-.88,3.83,3.83,0,0,1-.85-1.37,4.78,4.78,0,0,1-.31-1.78,7.08,7.08,0,0,1,.19-1.6,6.57,6.57,0,0,1,.52-1.47,6,6,0,0,1,.84-1.26,5.53,5.53,0,0,1,1.11-1,5.27,5.27,0,0,1,1.35-.65,5.37,5.37,0,0,1,1.57-.23,4.1,4.1,0,0,1,1.46.24,3.28,3.28,0,0,1,1.07.62,2.83,2.83,0,0,1,.67.85A2.23,2.23,0,0,1,67.54,67Zm-3.6-.59a1.77,1.77,0,0,0-1.33.61,3.84,3.84,0,0,0-.86,1.66,14.48,14.48,0,0,0,1.55-.31,3.82,3.82,0,0,0,.92-.36,1,1,0,0,0,.44-.41,1,1,0,0,0,.12-.48.73.73,0,0,0-.2-.48A.78.78,0,0,0,63.94,66.36Z"/><path class="e83d57c3-db60-4bd1-96ee-7c025cddc152" d="M76.58,74.69H74.94a1.34,1.34,0,0,1-.48-.08.75.75,0,0,1-.3-.2A.71.71,0,0,1,74,74.1a1.58,1.58,0,0,1,0-.38V73a5.33,5.33,0,0,1-1.4,1.37,3.07,3.07,0,0,1-1.7.49,2.63,2.63,0,0,1-1.07-.22,2.56,2.56,0,0,1-.91-.67,3.4,3.4,0,0,1-.63-1.15A5,5,0,0,1,68,71.16a6.91,6.91,0,0,1,.51-2.65,6.73,6.73,0,0,1,1.42-2.19,6.73,6.73,0,0,1,4.93-2,10.76,10.76,0,0,1,1.49.1,7.79,7.79,0,0,1,1.48.36Zm-4.5-2.27a1,1,0,0,0,.65-.25,3,3,0,0,0,.6-.69,6.06,6.06,0,0,0,.51-1,9,9,0,0,0,.41-1.24l.36-2.84h-.18a2.86,2.86,0,0,0-1.37.33,3.47,3.47,0,0,0-1.07.92A4.34,4.34,0,0,0,71.31,69a5.47,5.47,0,0,0-.24,1.64,3.42,3.42,0,0,0,.08.84,1.73,1.73,0,0,0,.21.56.8.8,0,0,0,.72.41Z"/><path class="e83d57c3-db60-4bd1-96ee-7c025cddc152" d="M84.52,74.69l.77-6.52c0-.11,0-.21,0-.29s0-.18,0-.26a1,1,0,0,0-.19-.72.68.68,0,0,0-.55-.21,1.44,1.44,0,0,0-.7.21,2.86,2.86,0,0,0-.69.59,3.9,3.9,0,0,0-.61.91,5.42,5.42,0,0,0-.44,1.19l-.56,5.1H78.52l1.23-10.26h1.58a1.11,1.11,0,0,1,.74.22.89.89,0,0,1,.27.73v.82A5,5,0,0,1,84,64.74a3.88,3.88,0,0,1,1.82-.47,2.59,2.59,0,0,1,1,.21,2.19,2.19,0,0,1,.83.61,2.8,2.8,0,0,1,.54,1,4,4,0,0,1,.2,1.35c0,.11,0,.24,0,.36s0,.26,0,.39l-.77,6.52Z"/><path class="a8de948c-efc4-4396-b101-55c1981ec48f" d="M97,70.3c0,.13.07.26.1.4a6.68,6.68,0,0,1,.41-.8L103.12,61c.1-.15.19-.25.28-.27a1.37,1.37,0,0,1,.39,0h1.38l-1.74,14.17h-1.62l1.29-10.47c0-.13,0-.27.07-.43l.09-.47-5.51,8.88a.81.81,0,0,1-.72.43h-.26a.62.62,0,0,1-.62-.43l-3.41-8.9c0,.16,0,.31,0,.46s0,.3,0,.43L91.4,74.84H89.77l1.75-14.17h1.36a1.37,1.37,0,0,1,.39,0c.09,0,.17.12.22.27l3.43,8.91Z"/><path class="a8de948c-efc4-4396-b101-55c1981ec48f" d="M113.66,74.84h-.92a.57.57,0,0,1-.47-.17.78.78,0,0,1-.12-.44l.18-2a8.11,8.11,0,0,1-.77,1.14,5.11,5.11,0,0,1-.87.87,4.07,4.07,0,0,1-1,.56,2.91,2.91,0,0,1-1,.19,2.55,2.55,0,0,1-1.08-.23,2.24,2.24,0,0,1-.82-.68,3.18,3.18,0,0,1-.53-1.11,5.33,5.33,0,0,1-.19-1.51,6.67,6.67,0,0,1,.22-1.73,7.2,7.2,0,0,1,.63-1.6,7.54,7.54,0,0,1,1-1.38,6.66,6.66,0,0,1,1.28-1.09,6,6,0,0,1,1.52-.71,5.64,5.64,0,0,1,1.7-.25,7.28,7.28,0,0,1,1.25.1,4.76,4.76,0,0,1,1.2.37Zm-4.32-1.32a1.72,1.72,0,0,0,1-.3,3.54,3.54,0,0,0,.88-.82,7,7,0,0,0,.78-1.25,12.85,12.85,0,0,0,.64-1.59l.42-3.39a.67.67,0,0,0-.43-.18h-.42a3.75,3.75,0,0,0-1.15.19,4.23,4.23,0,0,0-1,.54,4.32,4.32,0,0,0-.88.83,4.73,4.73,0,0,0-.68,1,5.45,5.45,0,0,0-.44,1.21,5.38,5.38,0,0,0-.16,1.33C107.82,72.73,108.33,73.52,109.34,73.52Z"/><path class="a8de948c-efc4-4396-b101-55c1981ec48f" d="M122.7,74a4.87,4.87,0,0,1-.93.6,3.71,3.71,0,0,1-1,.31,6,6,0,0,1-1.07.09,3.71,3.71,0,0,1-1.54-.3,2.91,2.91,0,0,1-1.12-.83,3.58,3.58,0,0,1-.68-1.3,5.46,5.46,0,0,1-.23-1.66,7.09,7.09,0,0,1,.38-2.34,6.72,6.72,0,0,1,1.06-2,5.43,5.43,0,0,1,1.62-1.37,4.29,4.29,0,0,1,2.07-.51A3.49,3.49,0,0,1,123,65a3.44,3.44,0,0,1,1.18,1l-.56.66a.43.43,0,0,1-.14.13.46.46,0,0,1-.2.05.41.41,0,0,1-.27-.12,4.26,4.26,0,0,0-.35-.28,2.88,2.88,0,0,0-.53-.28,2.43,2.43,0,0,0-.83-.12,2.39,2.39,0,0,0-1.29.37,3.54,3.54,0,0,0-1.06,1,4.76,4.76,0,0,0-.72,1.52,6.69,6.69,0,0,0-.26,1.89,3.83,3.83,0,0,0,.14,1.11,2.4,2.4,0,0,0,.41.85,1.87,1.87,0,0,0,.68.54,2.12,2.12,0,0,0,.93.2,2.71,2.71,0,0,0,.79-.1,3,3,0,0,0,.62-.23A2.7,2.7,0,0,0,122,73l.36-.3.3-.24a.48.48,0,0,1,.27-.09.44.44,0,0,1,.34.17l.43.53A8.37,8.37,0,0,1,122.7,74Z"/><path class="a8de948c-efc4-4396-b101-55c1981ec48f" d="M124.92,74.84l1.76-14.56h1.76L127.62,67a5.88,5.88,0,0,1,1.74-1.77,3.66,3.66,0,0,1,1.95-.59,2.13,2.13,0,0,1,1.75.75,3.37,3.37,0,0,1,.61,2.18c0,.14,0,.27,0,.41a3.27,3.27,0,0,1,0,.44l-.75,6.38h-1.76l.75-6.38c0-.13,0-.25,0-.38s0-.24,0-.35a2,2,0,0,0-.3-1.2,1.11,1.11,0,0,0-1-.4,2,2,0,0,0-.92.24,3.53,3.53,0,0,0-.91.69,5.42,5.42,0,0,0-.83,1.07,7.91,7.91,0,0,0-.68,1.4l-.64,5.31Z"/><path class="a8de948c-efc4-4396-b101-55c1981ec48f" d="M138.5,64.82l-1.21,10h-1.73l1.21-10Zm.66-3.14a1.12,1.12,0,0,1-.1.48,1.48,1.48,0,0,1-.67.67,1.06,1.06,0,0,1-.9,0,1.29,1.29,0,0,1-.38-.28,1.16,1.16,0,0,1-.26-.39,1.2,1.2,0,0,1,0-1,1.25,1.25,0,0,1,.26-.41,1.7,1.7,0,0,1,.39-.27,1,1,0,0,1,.45-.11,1.18,1.18,0,0,1,.45.1,1.36,1.36,0,0,1,.39.27,1.13,1.13,0,0,1,.27.41A1.16,1.16,0,0,1,139.16,61.68Z"/><path class="a8de948c-efc4-4396-b101-55c1981ec48f" d="M140.14,74.84l1.2-10h.88a.53.53,0,0,1,.59.6l-.15,1.94a6.24,6.24,0,0,1,1.81-2,3.67,3.67,0,0,1,2.08-.67,2.15,2.15,0,0,1,1.74.75,3.38,3.38,0,0,1,.61,2.19c0,.14,0,.27,0,.41a3.28,3.28,0,0,1,0,.43l-.75,6.38h-1.76l.75-6.38c0-.13,0-.25,0-.38s0-.24,0-.35a2,2,0,0,0-.3-1.2,1.11,1.11,0,0,0-.94-.39,2.11,2.11,0,0,0-1,.26,3.81,3.81,0,0,0-.94.72,6.5,6.5,0,0,0-.85,1.14,8.5,8.5,0,0,0-.67,1.49l-.57,5.09Z"/><path class="a8de948c-efc4-4396-b101-55c1981ec48f" d="M158.56,67a2.65,2.65,0,0,1-.27,1.2,2.5,2.5,0,0,1-1,1,7.46,7.46,0,0,1-2,.77,21.13,21.13,0,0,1-3.2.52,1.55,1.55,0,0,0,0,.21v.22a3.08,3.08,0,0,0,.58,2,2.13,2.13,0,0,0,1.74.7,3.6,3.6,0,0,0,.85-.1,5.06,5.06,0,0,0,.66-.24,3.45,3.45,0,0,0,.51-.32l.41-.32.35-.24a.57.57,0,0,1,.32-.1.43.43,0,0,1,.32.17l.44.54a9.85,9.85,0,0,1-1,.9,5.74,5.74,0,0,1-1,.62,5,5,0,0,1-1,.36,6.34,6.34,0,0,1-1.19.11,4,4,0,0,1-1.54-.28,3.31,3.31,0,0,1-1.15-.82,3.59,3.59,0,0,1-.74-1.28,5.2,5.2,0,0,1-.25-1.68,7.26,7.26,0,0,1,.16-1.54,7.78,7.78,0,0,1,.47-1.46,6.47,6.47,0,0,1,.77-1.29,5.47,5.47,0,0,1,1-1,5.07,5.07,0,0,1,1.28-.68,4.54,4.54,0,0,1,1.5-.24,3.67,3.67,0,0,1,1.31.21,2.71,2.71,0,0,1,.91.56,2.07,2.07,0,0,1,.53.74A1.91,1.91,0,0,1,158.56,67Zm-3-1a2.59,2.59,0,0,0-1.15.26,3,3,0,0,0-.93.71,4.34,4.34,0,0,0-.69,1,7,7,0,0,0-.45,1.31,17,17,0,0,0,2.45-.43,6,6,0,0,0,1.41-.52,1.58,1.58,0,0,0,.66-.61A1.6,1.6,0,0,0,157,67a.85.85,0,0,0-.08-.37.84.84,0,0,0-.25-.35,1.09,1.09,0,0,0-.45-.26A1.88,1.88,0,0,0,155.53,66Z"/><path class="a8de948c-efc4-4396-b101-55c1981ec48f" d="M46,78.09h.86a.1.1,0,0,1,.11.11v7.67a.1.1,0,0,1-.11.11H46a.1.1,0,0,1-.11-.11V82.52a0,0,0,0,0,0,0H42.61a0,0,0,0,0,0,0v3.35a.1.1,0,0,1-.11.11h-.86a.1.1,0,0,1-.11-.11V78.2a.1.1,0,0,1,.11-.11h.86c.08,0,.11,0,.11.11v3.29a0,0,0,0,0,0,.05h3.21a0,0,0,0,0,0-.05V78.2C45.87,78.12,45.9,78.09,46,78.09Z"/><path class="a8de948c-efc4-4396-b101-55c1981ec48f" d="M51.92,80.39a1.88,1.88,0,0,1,.79.68,1.83,1.83,0,0,1,.27,1v3.82a.1.1,0,0,1-.11.11H52a.1.1,0,0,1-.11-.11v-.41s0,0-.06,0a2,2,0,0,1-.71.47,2.81,2.81,0,0,1-.94.16,2.18,2.18,0,0,1-1.38-.42,1.52,1.52,0,0,1-.55-1.28A1.7,1.7,0,0,1,48.87,83a2.69,2.69,0,0,1,1.72-.5h1.27s0,0,0,0v-.31a1,1,0,0,0-.29-.77,1.23,1.23,0,0,0-.87-.27,1.46,1.46,0,0,0-.77.18.8.8,0,0,0-.37.5.12.12,0,0,1-.14.1l-.91-.12c-.07,0-.11,0-.1-.09a1.55,1.55,0,0,1,.71-1.09,2.71,2.71,0,0,1,1.56-.42A2.79,2.79,0,0,1,51.92,80.39Zm-.46,4.45a1,1,0,0,0,.44-.8v-.67s0,0,0,0H50.8a1.91,1.91,0,0,0-1.06.26.8.8,0,0,0-.4.72.72.72,0,0,0,.3.63,1.33,1.33,0,0,0,.78.22A1.74,1.74,0,0,0,51.46,84.84Z"/><path class="a8de948c-efc4-4396-b101-55c1981ec48f" d="M57.62,80.33c.05,0,.07.07.05.14l-.18.84c0,.07-.05.09-.13.07a1.25,1.25,0,0,0-.45-.08h-.16a1.28,1.28,0,0,0-.87.37,1.21,1.21,0,0,0-.35.89v3.3a.1.1,0,0,1-.11.11h-.86a.1.1,0,0,1-.11-.11V80.35a.1.1,0,0,1,.11-.11h.86a.1.1,0,0,1,.11.11V81s0,0,0,0,0,0,0,0A1.58,1.58,0,0,1,57,80.18,1.43,1.43,0,0,1,57.62,80.33Z"/><path class="a8de948c-efc4-4396-b101-55c1981ec48f" d="M62.22,78.09h.86a.1.1,0,0,1,.11.11v7.67a.1.1,0,0,1-.11.11h-.86a.1.1,0,0,1-.11-.11v-.38l0,0s0,0,0,0a1.61,1.61,0,0,1-.59.44,1.63,1.63,0,0,1-.73.16,2.18,2.18,0,0,1-1.35-.4,2.33,2.33,0,0,1-.78-1.13,4.38,4.38,0,0,1-.22-1.45,4.55,4.55,0,0,1,.19-1.36,2.1,2.1,0,0,1,2.16-1.58,1.8,1.8,0,0,1,.73.15,1.61,1.61,0,0,1,.59.44h0a.05.05,0,0,0,0,0V78.2C62.11,78.12,62.14,78.09,62.22,78.09Zm-.14,5a2.94,2.94,0,0,0-.28-1.44,1,1,0,0,0-1-.57,1.09,1.09,0,0,0-1,.54,2.72,2.72,0,0,0-.36,1.49,2.94,2.94,0,0,0,.28,1.39,1.12,1.12,0,0,0,1.07.62,1.06,1.06,0,0,0,1-.61A2.92,2.92,0,0,0,62.08,83.1Z"/><path class="a8de948c-efc4-4396-b101-55c1981ec48f" d="M65.93,85.89l-1.62-5.53v0c0-.06,0-.09.11-.09h.88a.11.11,0,0,1,.12.1l1.07,4.09s0,0,0,0l0,0,1.09-4.09a.12.12,0,0,1,.13-.1h.78a.12.12,0,0,1,.12.1l1.12,4.08s0,0,0,0,0,0,0,0L71,80.34a.11.11,0,0,1,.12-.1h.87a.12.12,0,0,1,.09,0,.14.14,0,0,1,0,.09l-1.63,5.52a.14.14,0,0,1-.13.09H69.4a.12.12,0,0,1-.12-.09l-1.11-3.81s0,0,0,0,0,0,0,0l-1.05,3.8A.12.12,0,0,1,67,86h-.9A.12.12,0,0,1,65.93,85.89Z"/><path class="a8de948c-efc4-4396-b101-55c1981ec48f" d="M76.27,80.39a1.88,1.88,0,0,1,.79.68,1.83,1.83,0,0,1,.27,1v3.82a.1.1,0,0,1-.11.11h-.86a.1.1,0,0,1-.11-.11v-.41s0,0-.06,0a2,2,0,0,1-.71.47,2.87,2.87,0,0,1-1,.16,2.22,2.22,0,0,1-1.38-.42,1.54,1.54,0,0,1-.54-1.28A1.7,1.7,0,0,1,73.22,83a2.67,2.67,0,0,1,1.72-.5H76.2s0,0,0,0v-.31a1,1,0,0,0-.29-.77,1.23,1.23,0,0,0-.87-.27,1.5,1.5,0,0,0-.78.18.78.78,0,0,0-.36.5.12.12,0,0,1-.14.1l-.91-.12c-.08,0-.11,0-.1-.09a1.52,1.52,0,0,1,.71-1.09,2.71,2.71,0,0,1,1.56-.42A2.86,2.86,0,0,1,76.27,80.39Zm-.46,4.45a1,1,0,0,0,.44-.8v-.67s0,0,0,0H75.14a2,2,0,0,0-1.06.26.81.81,0,0,0-.39.72.72.72,0,0,0,.3.63,1.33,1.33,0,0,0,.78.22A1.74,1.74,0,0,0,75.81,84.84Z"/><path class="a8de948c-efc4-4396-b101-55c1981ec48f" d="M82,80.33s.07.07,0,.14l-.18.84c0,.07,0,.09-.13.07a1.25,1.25,0,0,0-.45-.08H81.1a1.29,1.29,0,0,0-.88.37,1.25,1.25,0,0,0-.34.89v3.3a.1.1,0,0,1-.11.11h-.86a.1.1,0,0,1-.11-.11V80.35a.1.1,0,0,1,.11-.11h.86a.1.1,0,0,1,.11.11V81s0,0,0,0,0,0,0,0a1.57,1.57,0,0,1,1.38-.79A1.45,1.45,0,0,1,82,80.33Z"/><path class="a8de948c-efc4-4396-b101-55c1981ec48f" d="M87.57,83.43a.1.1,0,0,1-.11.11h-3.6s0,0,0,0a2.27,2.27,0,0,0,.06.59,1.21,1.21,0,0,0,.51.7,1.64,1.64,0,0,0,1,.25,1.46,1.46,0,0,0,1.28-.68c0-.08.09-.09.15,0l.64.43c.06,0,.07.09,0,.15a2.2,2.2,0,0,1-.9.8,2.93,2.93,0,0,1-1.31.29,2.54,2.54,0,0,1-1.39-.36,2.17,2.17,0,0,1-.85-1,4.27,4.27,0,0,1-.27-1.61,4.45,4.45,0,0,1,.13-1.25,2.1,2.1,0,0,1,.81-1.23,2.43,2.43,0,0,1,1.48-.45,2.3,2.3,0,0,1,1.7.57,2.76,2.76,0,0,1,.69,1.67A8.58,8.58,0,0,1,87.57,83.43Zm-3.22-2.1a1.17,1.17,0,0,0-.43.65,2.07,2.07,0,0,0-.1.63s0,0,0,0h2.58s0,0,0,0a4.18,4.18,0,0,0-.07-.56,1.26,1.26,0,0,0-.44-.7,1.29,1.29,0,0,0-.83-.26A1.27,1.27,0,0,0,84.35,81.33Z"/><path class="a8de948c-efc4-4396-b101-55c1981ec48f" d="M97.37,85.91s0,.07-.09.07h-1a.15.15,0,0,1-.13-.07l-.58-.65a0,0,0,0,0-.07,0,3.53,3.53,0,0,1-2.29.82,2.72,2.72,0,0,1-1.66-.48,1.64,1.64,0,0,1-.65-1.4,2,2,0,0,1,.44-1.32,5.19,5.19,0,0,1,1.19-1s0,0,0-.06a8.23,8.23,0,0,1-.84-1.16,1.91,1.91,0,0,1-.2-.83,1.79,1.79,0,0,1,.25-.92,1.63,1.63,0,0,1,.73-.64A2.27,2.27,0,0,1,93.57,78a2.23,2.23,0,0,1,1.52.5,1.66,1.66,0,0,1,.6,1.33,1.88,1.88,0,0,1-.41,1.2,4.7,4.7,0,0,1-1.13,1s0,0,0,.06c.28.34.75.89,1.4,1.63l0,.06s0,0,0,0h0c.33-.41.57-.73.73-1a.1.1,0,0,1,.15,0l.64.36c.07,0,.08.09,0,.16a9.36,9.36,0,0,1-.93,1.22v0a.27.27,0,0,0,0,.08l1,1.2A.13.13,0,0,1,97.37,85.91Zm-2.48-1.39a0,0,0,0,0,0-.06L94.51,84l-.41-.45-.82-.92s0,0-.06,0a3.91,3.91,0,0,0-.89.74,1.27,1.27,0,0,0-.3.83.86.86,0,0,0,.33.71,1.44,1.44,0,0,0,.9.25A2.71,2.71,0,0,0,94.89,84.52Zm-2-5.29a.83.83,0,0,0-.27.65,1,1,0,0,0,.15.49,9.44,9.44,0,0,0,.65.88s0,0,.07,0a4.29,4.29,0,0,0,.84-.69,1.09,1.09,0,0,0,.29-.72.82.82,0,0,0-.28-.64,1.13,1.13,0,0,0-.72-.23A1.05,1.05,0,0,0,92.88,79.23Z"/><path class="a8de948c-efc4-4396-b101-55c1981ec48f" d="M106.33,78.2v.72c0,.07,0,.11-.12.11h-2.16a0,0,0,0,0,0,0v6.79a.1.1,0,0,1-.11.11H103a.1.1,0,0,1-.11-.11V79.08s0,0,0,0h-2.07a.1.1,0,0,1-.11-.11V78.2a.1.1,0,0,1,.11-.11h5.4C106.29,78.09,106.33,78.12,106.33,78.2Z"/><path class="a8de948c-efc4-4396-b101-55c1981ec48f" d="M111.37,83.43c0,.08,0,.11-.12.11h-3.59a0,0,0,0,0,0,0,1.86,1.86,0,0,0,.07.59,1.19,1.19,0,0,0,.5.7,1.66,1.66,0,0,0,.95.25,1.46,1.46,0,0,0,1.29-.68c0-.08.09-.09.15,0l.64.43a.11.11,0,0,1,0,.15,2.23,2.23,0,0,1-.89.8,3,3,0,0,1-1.32.29,2.49,2.49,0,0,1-1.38-.36,2.17,2.17,0,0,1-.85-1,4.27,4.27,0,0,1-.27-1.61,4.94,4.94,0,0,1,.12-1.25,2.2,2.2,0,0,1,.81-1.23,2.43,2.43,0,0,1,1.48-.45,2.32,2.32,0,0,1,1.71.57,2.76,2.76,0,0,1,.68,1.67C111.36,82.7,111.37,83.05,111.37,83.43Zm-3.23-2.1a1.23,1.23,0,0,0-.43.65,3,3,0,0,0-.1.63s0,0,0,0h2.58s0,0,0,0a3.16,3.16,0,0,0-.06-.56,1.34,1.34,0,0,0-.45-.7,1.27,1.27,0,0,0-.83-.26A1.29,1.29,0,0,0,108.14,81.33Z"/><path class="a8de948c-efc4-4396-b101-55c1981ec48f" d="M113.57,85.64a2.19,2.19,0,0,1-.84-1.18,4.63,4.63,0,0,1-.17-1.37,5,5,0,0,1,.17-1.36,2.12,2.12,0,0,1,.84-1.15,2.47,2.47,0,0,1,1.46-.43,2.53,2.53,0,0,1,1.48.43,1.89,1.89,0,0,1,.82,1.08,1.25,1.25,0,0,1,.09.37.12.12,0,0,1-.1.12l-.84.12h0s-.09,0-.11-.1l0-.18a1.14,1.14,0,0,0-.44-.65,1.42,1.42,0,0,0-.85-.25,1.31,1.31,0,0,0-.82.25,1.22,1.22,0,0,0-.44.69,4.46,4.46,0,0,0-.1,1.07,4.37,4.37,0,0,0,.1,1.06,1.22,1.22,0,0,0,.44.71,1.28,1.28,0,0,0,.82.26,1.34,1.34,0,0,0,.85-.26,1.07,1.07,0,0,0,.45-.67,0,0,0,0,0,0,0,0,0,0,0,1,0,0v0c0-.06.06-.09.12-.07l.85.13q.09,0,.09.09v0a.69.69,0,0,1-.06.25,1.87,1.87,0,0,1-.82,1.1,2.6,2.6,0,0,1-1.48.42A2.42,2.42,0,0,1,113.57,85.64Z"/><path class="a8de948c-efc4-4396-b101-55c1981ec48f" d="M122.69,80.7a1.94,1.94,0,0,1,.54,1.45v3.72a.1.1,0,0,1-.11.11h-.86a.1.1,0,0,1-.11-.11V82.36a1.26,1.26,0,0,0-.33-.91,1.24,1.24,0,0,0-1.73,0,1.21,1.21,0,0,0-.34.9v3.52c0,.07,0,.11-.12.11h-.85c-.08,0-.12,0-.12-.11V78.2c0-.08,0-.11.12-.11h.85c.08,0,.12,0,.12.11v2.56a0,0,0,0,0,0,0s0,0,0,0a1.71,1.71,0,0,1,1.43-.62A2,2,0,0,1,122.69,80.7Z"/></svg>