<svg id="Capa_1" data-name="Capa 1" xmlns="http://www.w3.org/2000/svg" viewBox="0 0 200 50"><defs><style>.cls-1{fill:#337dff;}.cls-2{fill:#ccc;}</style></defs><path class="cls-1" d="M36.94,1.92A23.08,23.08,0,1,1,13.87,25,23.08,23.08,0,0,1,36.94,1.92m0-1.92a25,25,0,1,0,25,25,25,25,0,0,0-25-25Z"/><path class="cls-1" d="M36.1,29c.22-.44.44-.86.67-1.29s.47-.84.72-1.26l8.82-15.17a1.67,1.67,0,0,1,1-.83,4.3,4.3,0,0,1,1.15-.16h5.06L50,39.15H44.29l2-16.78c0-.35.1-.74.19-1.17s.18-.88.29-1.34L38.12,34.74a2.45,2.45,0,0,1-1,1,2.93,2.93,0,0,1-1.38.33h-.87a2.5,2.5,0,0,1-1.32-.34,1.78,1.78,0,0,1-.78-1L27.82,19.82c0,.45-2.38,19.33-2.38,19.33H19.85l3.56-28.8H29a1.7,1.7,0,0,1,.57.09,1.07,1.07,0,0,1,.42.28,1.65,1.65,0,0,1,.3.58l5.06,15.18A24.85,24.85,0,0,1,36.1,29Z"/><path class="cls-2" d="M38.38,31.62c.06.23.12.46.18.71a13,13,0,0,1,.75-1.43l10-16a1.1,1.1,0,0,1,.51-.49,2.54,2.54,0,0,1,.7-.08H53L50,39.15H47L49.27,21c0-.23.06-.49.11-.76s.11-.56.17-.85L39.66,35.3a1.43,1.43,0,0,1-1.29.76h-.46a1.1,1.1,0,0,1-1.12-.76l-6.13-16,0,.84c0,.27,0,.52-.05.76L28.37,39.15H25.44l3-24.82h2.43a2.54,2.54,0,0,1,.7.08.69.69,0,0,1,.4.49l6.16,16Z"/><path class="cls-1" d="M77,19.68l.33-.64.36-.63,4.41-7.59a.85.85,0,0,1,.5-.41,2,2,0,0,1,.57-.08h2.53L83.91,24.74H81.08l1-8.39c0-.18.06-.37.1-.59s.09-.44.14-.67L78,22.53a1.23,1.23,0,0,1-.51.5,1.53,1.53,0,0,1-.7.16h-.43A1.29,1.29,0,0,1,75.7,23a.89.89,0,0,1-.39-.5l-2.53-7.46c0,.23,0,.45,0,.66s0,.4,0,.57l-1,8.44H68.86l1.78-14.4h2.82a.79.79,0,0,1,.28,0,.52.52,0,0,1,.21.14.87.87,0,0,1,.15.29l2.54,7.6C76.77,18.82,76.89,19.25,77,19.68Z"/><path class="cls-1" d="M95,17a2.9,2.9,0,0,1-.28,1.29,2.52,2.52,0,0,1-1,1,6.6,6.6,0,0,1-1.85.77,18.71,18.71,0,0,1-2.92.49,2.28,2.28,0,0,0,.46,1.54,1.66,1.66,0,0,0,1.3.48,2.91,2.91,0,0,0,.7-.07,2.26,2.26,0,0,0,.52-.18c.15-.07.28-.15.4-.22l.34-.23a2.21,2.21,0,0,1,.34-.18,1.07,1.07,0,0,1,.41-.07.68.68,0,0,1,.28.07.82.82,0,0,1,.25.2l.79.92a10.69,10.69,0,0,1-1.06.92,6,6,0,0,1-1.07.65,5.51,5.51,0,0,1-1.17.37,7.1,7.1,0,0,1-1.35.11,4.35,4.35,0,0,1-1.67-.31,3.69,3.69,0,0,1-1.31-.88,4,4,0,0,1-.85-1.37,5,5,0,0,1-.3-1.78,7.14,7.14,0,0,1,.18-1.6,6.6,6.6,0,0,1,.53-1.47,6,6,0,0,1,.83-1.26,5.32,5.32,0,0,1,1.12-1A5.27,5.27,0,0,1,90,14.57a5.32,5.32,0,0,1,1.57-.23,4.14,4.14,0,0,1,1.46.24,3.38,3.38,0,0,1,1.07.62,2.65,2.65,0,0,1,.66.85A2.24,2.24,0,0,1,95,17Zm-3.6-.59A1.79,1.79,0,0,0,90,17a3.83,3.83,0,0,0-.85,1.66,15,15,0,0,0,1.55-.31,4.58,4.58,0,0,0,.92-.35,1,1,0,0,0,.55-.9.68.68,0,0,0-.2-.48A.79.79,0,0,0,91.36,16.41Z"/><path class="cls-1" d="M104,24.74h-1.64a1.34,1.34,0,0,1-.48-.08.76.76,0,0,1-.31-.2.69.69,0,0,1-.15-.31,1.17,1.17,0,0,1,0-.38V23A5.17,5.17,0,0,1,100,24.4a3.06,3.06,0,0,1-1.69.49,2.6,2.6,0,0,1-1.07-.22,2.48,2.48,0,0,1-.91-.67,3.25,3.25,0,0,1-.64-1.15,5,5,0,0,1-.23-1.64,7,7,0,0,1,.51-2.65,6.79,6.79,0,0,1,6.35-4.24,12.4,12.4,0,0,1,1.48.1,7.89,7.89,0,0,1,1.49.36Zm-4.51-2.27a1,1,0,0,0,.65-.25,3,3,0,0,0,.6-.69,6.06,6.06,0,0,0,.52-1,10.6,10.6,0,0,0,.41-1.24l.35-2.84h-.17a2.73,2.73,0,0,0-1.37.34,3.33,3.33,0,0,0-1.07.91A4.64,4.64,0,0,0,98.72,19a5.4,5.4,0,0,0-.24,1.63,4,4,0,0,0,.08.84,2,2,0,0,0,.21.56.86.86,0,0,0,.32.31A.79.79,0,0,0,99.49,22.47Z"/><path class="cls-1" d="M111.93,24.74l.77-6.52a1.59,1.59,0,0,0,0-.29,2.35,2.35,0,0,0,0-.26,1.1,1.1,0,0,0-.18-.72.68.68,0,0,0-.55-.2,1.5,1.5,0,0,0-.7.2,2.89,2.89,0,0,0-.7.59,4.65,4.65,0,0,0-.61.91,5.4,5.4,0,0,0-.43,1.19l-.56,5.1h-3.07l1.23-10.26h1.58a1.18,1.18,0,0,1,.74.22.89.89,0,0,1,.27.73v.82a5,5,0,0,1,1.62-1.46,3.85,3.85,0,0,1,1.82-.47,2.59,2.59,0,0,1,1,.21,2.27,2.27,0,0,1,.83.61,2.89,2.89,0,0,1,.54,1,4.26,4.26,0,0,1,.2,1.35c0,.12,0,.24,0,.36l0,.39L115,24.74Z"/><path class="cls-2" d="M124.45,20.35c0,.13.07.26.1.4A6.09,6.09,0,0,1,125,20L130.54,11a.59.59,0,0,1,.28-.27,1.37,1.37,0,0,1,.39,0h1.38l-1.74,14.17h-1.63l1.3-10.47a3.53,3.53,0,0,1,.06-.42c0-.16.06-.31.1-.48l-5.51,8.88a.79.79,0,0,1-.72.43h-.26a.61.61,0,0,1-.62-.43l-3.42-8.9c0,.16,0,.31,0,.47a2.77,2.77,0,0,1,0,.42l-1.28,10.5h-1.63l1.75-14.17h1.35a1.27,1.27,0,0,1,.39,0c.1,0,.17.12.23.27L124.34,20C124.38,20.09,124.41,20.22,124.45,20.35Z"/><path class="cls-2" d="M141.07,24.89h-.91a.56.56,0,0,1-.47-.17.78.78,0,0,1-.12-.44l.18-2a9.07,9.07,0,0,1-.77,1.14,5.11,5.11,0,0,1-.87.87,3.81,3.81,0,0,1-1,.56,2.82,2.82,0,0,1-1,.19A2.38,2.38,0,0,1,135,24.8a2.25,2.25,0,0,1-.83-.68,3.58,3.58,0,0,1-.53-1.11,5.74,5.74,0,0,1-.18-1.51,6.67,6.67,0,0,1,.22-1.73,7.2,7.2,0,0,1,.63-1.6,6.7,6.7,0,0,1,1-1.38,6.37,6.37,0,0,1,1.28-1.09,6,6,0,0,1,1.51-.71,5.66,5.66,0,0,1,1.71-.25,7.44,7.44,0,0,1,1.25.1,5,5,0,0,1,1.2.37Zm-4.31-1.32a1.74,1.74,0,0,0,1-.3,3.72,3.72,0,0,0,.88-.82,7.68,7.68,0,0,0,.78-1.25,11.45,11.45,0,0,0,.63-1.59l.43-3.39A.69.69,0,0,0,140,16h-.42a3.43,3.43,0,0,0-1.15.2,3.93,3.93,0,0,0-1,.53,4.91,4.91,0,0,0-.88.83,5.73,5.73,0,0,0-.68,1,6.68,6.68,0,0,0-.44,1.21,6,6,0,0,0-.15,1.33C135.24,22.78,135.74,23.57,136.76,23.57Z"/><path class="cls-2" d="M150.12,24a4.87,4.87,0,0,1-.93.6,3.71,3.71,0,0,1-1,.31,6.13,6.13,0,0,1-1.08.09,3.92,3.92,0,0,1-1.54-.29,3.09,3.09,0,0,1-1.11-.84,3.58,3.58,0,0,1-.68-1.3,5.41,5.41,0,0,1-.24-1.66A7.35,7.35,0,0,1,144,18.6a6.57,6.57,0,0,1,1.07-2,5.1,5.1,0,0,1,1.62-1.38,4.23,4.23,0,0,1,2.07-.51,3.49,3.49,0,0,1,1.66.35,3.33,3.33,0,0,1,1.17,1l-.55.67a.44.44,0,0,1-.15.12.33.33,0,0,1-.2.05.41.41,0,0,1-.27-.12,3.93,3.93,0,0,0-.34-.28,2.47,2.47,0,0,0-.54-.27,2.14,2.14,0,0,0-.82-.13,2.47,2.47,0,0,0-1.29.37,3.69,3.69,0,0,0-1.07,1,5,5,0,0,0-.71,1.52,6.44,6.44,0,0,0-.27,1.89,4.21,4.21,0,0,0,.14,1.11,2.26,2.26,0,0,0,.42.85,1.87,1.87,0,0,0,.67.55,2.28,2.28,0,0,0,.94.19,2.71,2.71,0,0,0,.79-.1,2.88,2.88,0,0,0,.61-.23,2.37,2.37,0,0,0,.47-.3l.37-.3.3-.23a.41.41,0,0,1,.27-.1.42.42,0,0,1,.33.17l.44.53A9.25,9.25,0,0,1,150.12,24Z"/><path class="cls-2" d="M152.34,24.89l1.76-14.56h1.76L155,17.09a5.82,5.82,0,0,1,1.73-1.76,3.64,3.64,0,0,1,1.95-.6,2.15,2.15,0,0,1,1.76.75,3.43,3.43,0,0,1,.61,2.18c0,.14,0,.27,0,.41s0,.29,0,.45l-.75,6.37h-1.76l.75-6.37c0-.14,0-.26,0-.39s0-.23,0-.35a2,2,0,0,0-.3-1.2,1.11,1.11,0,0,0-1-.4,2,2,0,0,0-.91.24,3.82,3.82,0,0,0-.92.69,6.72,6.72,0,0,0-.83,1.07,7.89,7.89,0,0,0-.67,1.4l-.64,5.31Z"/><path class="cls-2" d="M165.92,14.88l-1.21,10H163l1.2-10Zm.66-3.15a1.29,1.29,0,0,1-.1.48,1.6,1.6,0,0,1-.28.4,1.7,1.7,0,0,1-.39.27,1.23,1.23,0,0,1-.46.1,1.13,1.13,0,0,1-.44-.1,1.31,1.31,0,0,1-.38-.27,1.56,1.56,0,0,1-.27-.4,1.24,1.24,0,0,1,.27-1.36,1.21,1.21,0,0,1,.39-.28,1,1,0,0,1,.44-.1,1.22,1.22,0,0,1,.46.09,1.48,1.48,0,0,1,.39.28,1.41,1.41,0,0,1,.27.4A1.19,1.19,0,0,1,166.58,11.73Z"/><path class="cls-2" d="M167.56,24.89l1.19-10h.88a.52.52,0,0,1,.6.59l-.15,1.94a6.11,6.11,0,0,1,1.8-2,3.7,3.7,0,0,1,2.09-.67,2.12,2.12,0,0,1,1.73.75,3.38,3.38,0,0,1,.62,2.19c0,.14,0,.27,0,.41s0,.28,0,.44l-.75,6.37h-1.76l.75-6.37c0-.14,0-.26,0-.39s0-.23,0-.35a2,2,0,0,0-.3-1.2,1.13,1.13,0,0,0-.95-.39,2.1,2.1,0,0,0-1,.26,3.67,3.67,0,0,0-.95.73,6,6,0,0,0-.84,1.13,8.5,8.5,0,0,0-.67,1.49l-.57,5.09Z"/><path class="cls-2" d="M186,17a2.65,2.65,0,0,1-.27,1.2,2.4,2.4,0,0,1-1,1,7.26,7.26,0,0,1-2,.77,21.08,21.08,0,0,1-3.21.52c0,.08,0,.15,0,.22v.21a3.12,3.12,0,0,0,.58,2,2.14,2.14,0,0,0,1.75.7,3.07,3.07,0,0,0,.84-.1,4.73,4.73,0,0,0,.67-.24,3.17,3.17,0,0,0,.51-.32l.41-.32.35-.24a.63.63,0,0,1,.31-.1.45.45,0,0,1,.33.17l.43.54a8.82,8.82,0,0,1-1,.9,6.16,6.16,0,0,1-1,.62,4.91,4.91,0,0,1-1.06.36,5.5,5.5,0,0,1-1.18.11,4,4,0,0,1-1.54-.28,3.35,3.35,0,0,1-1.16-.82,3.57,3.57,0,0,1-.73-1.28,5.2,5.2,0,0,1-.26-1.68,7.27,7.27,0,0,1,.17-1.54,6.75,6.75,0,0,1,1.23-2.74,5,5,0,0,1,1-1,5.22,5.22,0,0,1,1.28-.68,4.52,4.52,0,0,1,1.49-.24,3.51,3.51,0,0,1,1.32.22,2.63,2.63,0,0,1,.91.55,2.2,2.2,0,0,1,.53.74A2.07,2.07,0,0,1,186,17Zm-3-1a2.59,2.59,0,0,0-1.15.26,3,3,0,0,0-.93.71,4.22,4.22,0,0,0-.69,1.06,6.51,6.51,0,0,0-.45,1.31,20,20,0,0,0,2.44-.43,6.29,6.29,0,0,0,1.42-.53,1.49,1.49,0,0,0,.65-.61,1.45,1.45,0,0,0,.16-.68,1,1,0,0,0-.08-.37.94.94,0,0,0-.25-.35,1.4,1.4,0,0,0-.45-.26A1.92,1.92,0,0,0,183,16Z"/><path class="cls-2" d="M73.4,28.14h.85c.08,0,.12,0,.12.11v7.67c0,.07,0,.11-.12.11H73.4c-.08,0-.12,0-.12-.11V32.57s0,0,0,0H70s0,0,0,0v3.35a.1.1,0,0,1-.11.11H69a.1.1,0,0,1-.11-.11V28.25c0-.08,0-.11.11-.11h.86a.1.1,0,0,1,.11.11v3.29s0,.05,0,.05h3.22s0,0,0-.05V28.25C73.28,28.17,73.32,28.14,73.4,28.14Z"/><path class="cls-2" d="M79.33,30.44a1.8,1.8,0,0,1,1.07,1.67v3.81a.1.1,0,0,1-.11.11h-.86a.1.1,0,0,1-.11-.11v-.41s0,0-.06,0a1.92,1.92,0,0,1-.72.47,2.54,2.54,0,0,1-.94.16,2.22,2.22,0,0,1-1.38-.42,1.53,1.53,0,0,1-.55-1.28A1.68,1.68,0,0,1,76.29,33,2.61,2.61,0,0,1,78,32.53h1.26s0,0,0,0v-.3a1,1,0,0,0-.29-.78,1.23,1.23,0,0,0-.87-.27,1.5,1.5,0,0,0-.78.18.75.75,0,0,0-.36.5c0,.08-.07.11-.14.11L76,31.8c-.08,0-.11,0-.1-.09a1.54,1.54,0,0,1,.71-1.09,2.7,2.7,0,0,1,1.55-.42A2.79,2.79,0,0,1,79.33,30.44Zm-.45,4.45a1,1,0,0,0,.44-.8v-.66a0,0,0,0,0,0,0H78.21a1.93,1.93,0,0,0-1.06.26.81.81,0,0,0-.39.72.72.72,0,0,0,.3.63,1.25,1.25,0,0,0,.78.22A1.76,1.76,0,0,0,78.88,34.89Z"/><path class="cls-2" d="M85,30.38c.06,0,.08.07.06.14l-.18.84c0,.07,0,.09-.13.07a1.26,1.26,0,0,0-.46-.08h-.15a1.29,1.29,0,0,0-.88.37,1.21,1.21,0,0,0-.34.9v3.29a.1.1,0,0,1-.11.11H82a.1.1,0,0,1-.11-.11V30.4a.1.1,0,0,1,.11-.11h.86a.1.1,0,0,1,.11.11V31s0,0,0,0,0,0,0,0a1.59,1.59,0,0,1,1.39-.79A1.38,1.38,0,0,1,85,30.38Z"/><path class="cls-2" d="M89.64,28.14h.85c.08,0,.12,0,.12.11v7.67c0,.07,0,.11-.12.11h-.85c-.08,0-.12,0-.12-.11v-.37s0,0,0,0,0,0,0,0a1.69,1.69,0,0,1-.59.44,1.66,1.66,0,0,1-.73.16,2.18,2.18,0,0,1-1.35-.4A2.22,2.22,0,0,1,86,34.59a4.14,4.14,0,0,1-.22-1.45A4.57,4.57,0,0,1,86,31.78a2.31,2.31,0,0,1,.78-1.16,2.19,2.19,0,0,1,1.39-.42,1.75,1.75,0,0,1,.72.15,1.73,1.73,0,0,1,.6.44s0,0,0,0,0,0,0,0V28.25C89.52,28.17,89.56,28.14,89.64,28.14Zm-.14,5a2.94,2.94,0,0,0-.28-1.44,1,1,0,0,0-1-.57,1.08,1.08,0,0,0-1,.54,2.72,2.72,0,0,0-.36,1.49,2.91,2.91,0,0,0,.28,1.39,1.11,1.11,0,0,0,1.07.62,1.07,1.07,0,0,0,1-.6A3.11,3.11,0,0,0,89.5,33.15Z"/><path class="cls-2" d="M93.35,35.94l-1.63-5.53v0c0-.06,0-.09.11-.09h.88a.12.12,0,0,1,.13.1l1.07,4.1,0,0,0,0,1.09-4.1a.11.11,0,0,1,.12-.1H96a.12.12,0,0,1,.13.1l1.11,4.08s0,0,0,0,0,0,0,0l1.12-4.08a.11.11,0,0,1,.12-.1h.87a.08.08,0,0,1,.08,0,.09.09,0,0,1,0,.09l-1.64,5.51a.12.12,0,0,1-.12.09h-.88a.12.12,0,0,1-.12-.09l-1.11-3.81s0,0,0,0,0,0,0,0l-1,3.8a.12.12,0,0,1-.13.1h-.89A.12.12,0,0,1,93.35,35.94Z"/><path class="cls-2" d="M103.68,30.44a1.82,1.82,0,0,1,.79.68,1.76,1.76,0,0,1,.28,1v3.81a.1.1,0,0,1-.11.11h-.86a.1.1,0,0,1-.11-.11v-.41s0,0-.06,0a2.09,2.09,0,0,1-.72.47,2.54,2.54,0,0,1-.94.16,2.18,2.18,0,0,1-1.38-.42,1.5,1.5,0,0,1-.55-1.28,1.68,1.68,0,0,1,.62-1.38,2.61,2.61,0,0,1,1.72-.51h1.26s0,0,0,0v-.3a1,1,0,0,0-.29-.78,1.25,1.25,0,0,0-.88-.27,1.49,1.49,0,0,0-.77.18.8.8,0,0,0-.37.5c0,.08-.06.11-.13.11l-.91-.13c-.08,0-.11,0-.11-.09a1.57,1.57,0,0,1,.71-1.09,2.75,2.75,0,0,1,1.56-.42A2.79,2.79,0,0,1,103.68,30.44Zm-.45,4.45a1,1,0,0,0,.44-.8v-.66a0,0,0,0,0,0,0h-1.06a1.93,1.93,0,0,0-1.06.26.81.81,0,0,0-.39.72.71.71,0,0,0,.29.63,1.28,1.28,0,0,0,.79.22A1.76,1.76,0,0,0,103.23,34.89Z"/><path class="cls-2" d="M109.38,30.38c.06,0,.07.07.06.14l-.18.84c0,.07-.05.09-.14.07a1.17,1.17,0,0,0-.45-.08h-.16a1.28,1.28,0,0,0-.87.37,1.21,1.21,0,0,0-.34.9v3.29c0,.07,0,.11-.12.11h-.85c-.08,0-.12,0-.12-.11V30.4c0-.07,0-.11.12-.11h.85c.08,0,.12,0,.12.11V31s0,0,0,0,0,0,0,0a1.59,1.59,0,0,1,1.39-.79A1.38,1.38,0,0,1,109.38,30.38Z"/><path class="cls-2" d="M115,33.48c0,.08,0,.11-.12.11h-3.59a0,0,0,0,0,0,0,1.82,1.82,0,0,0,.07.59,1.19,1.19,0,0,0,.5.7,1.66,1.66,0,0,0,1,.25A1.44,1.44,0,0,0,114,34.5c0-.08.09-.09.15,0l.64.43a.11.11,0,0,1,0,.15,2.23,2.23,0,0,1-.89.8,3,3,0,0,1-1.32.29,2.49,2.49,0,0,1-1.38-.36,2.2,2.2,0,0,1-.85-1,4.36,4.36,0,0,1-.27-1.62,4.94,4.94,0,0,1,.12-1.25,2.17,2.17,0,0,1,.82-1.23,2.38,2.38,0,0,1,1.47-.45,2.32,2.32,0,0,1,1.71.57,2.76,2.76,0,0,1,.68,1.67C115,32.75,115,33.1,115,33.48Zm-3.23-2.1a1.23,1.23,0,0,0-.43.65,3,3,0,0,0-.1.63s0,0,0,0h2.58s0,0,0,0a2.92,2.92,0,0,0-.06-.55,1.32,1.32,0,0,0-.45-.71,1.27,1.27,0,0,0-.83-.26A1.29,1.29,0,0,0,111.76,31.38Z"/><path class="cls-2" d="M124.79,36s0,.07-.09.07h-1a.17.17,0,0,1-.14-.07l-.57-.65a0,0,0,0,0-.07,0,3.76,3.76,0,0,1-1.09.62,3.44,3.44,0,0,1-1.2.2,2.7,2.7,0,0,1-1.66-.48,1.64,1.64,0,0,1-.65-1.4,2,2,0,0,1,.43-1.32,5.42,5.42,0,0,1,1.19-1s0,0,0-.05a7.91,7.91,0,0,1-.83-1.17,1.75,1.75,0,0,1-.2-.83,1.68,1.68,0,0,1,1-1.56,2.58,2.58,0,0,1,2.59.27,1.67,1.67,0,0,1,.6,1.33,1.92,1.92,0,0,1-.41,1.21,5.2,5.2,0,0,1-1.14,1s0,0,0,.06c.29.35.76.89,1.41,1.63l.05.06s0,0,0,0h0c.34-.41.58-.73.74-1,0-.06.08-.07.14,0l.65.36a.1.1,0,0,1,0,.16,8.54,8.54,0,0,1-.94,1.22v0s0,0,0,.08l1,1.21A.07.07,0,0,1,124.79,36Zm-2.48-1.38s0,0,0-.07l-.39-.46-.4-.46-.83-.92s0,0,0,0a3.91,3.91,0,0,0-.89.74,1.22,1.22,0,0,0-.31.83.85.85,0,0,0,.34.71,1.43,1.43,0,0,0,.89.26A2.78,2.78,0,0,0,122.31,34.58Zm-2-5.3a.83.83,0,0,0-.27.65,1,1,0,0,0,.15.49,8.71,8.71,0,0,0,.65.89.06.06,0,0,0,.07,0,4,4,0,0,0,.84-.69,1.09,1.09,0,0,0,.29-.72.76.76,0,0,0-.29-.63,1.2,1.2,0,0,0-1.44,0Z"/><path class="cls-2" d="M133.74,28.25V29a.1.1,0,0,1-.11.11h-2.17s0,0,0,.05v6.79a.1.1,0,0,1-.11.11h-.86a.1.1,0,0,1-.11-.11V29.13a0,0,0,0,0-.05-.05h-2.06c-.08,0-.11,0-.11-.11v-.72c0-.08,0-.11.11-.11h5.4A.1.1,0,0,1,133.74,28.25Z"/><path class="cls-2" d="M138.78,33.48c0,.08,0,.11-.11.11h-3.6s0,0,0,0a1.82,1.82,0,0,0,.07.59,1.19,1.19,0,0,0,.5.7,1.66,1.66,0,0,0,1,.25,1.44,1.44,0,0,0,1.29-.68c0-.08.08-.09.14,0l.65.43a.11.11,0,0,1,0,.15,2.2,2.2,0,0,1-.9.8,2.9,2.9,0,0,1-1.31.29,2.54,2.54,0,0,1-1.39-.36,2.18,2.18,0,0,1-.84-1,4.36,4.36,0,0,1-.27-1.62,4.94,4.94,0,0,1,.12-1.25,2.15,2.15,0,0,1,.81-1.23,2.43,2.43,0,0,1,1.48-.45,2.28,2.28,0,0,1,1.7.57,2.71,2.71,0,0,1,.69,1.67A8.58,8.58,0,0,1,138.78,33.48Zm-3.22-2.1a1.17,1.17,0,0,0-.43.65,2.44,2.44,0,0,0-.1.63s0,0,0,0h2.59s0,0,0,0a2.75,2.75,0,0,0-.07-.55,1.25,1.25,0,0,0-.44-.71,1.27,1.27,0,0,0-.83-.26A1.29,1.29,0,0,0,135.56,31.38Z"/><path class="cls-2" d="M141,35.69a2.23,2.23,0,0,1-.83-1.18,4.63,4.63,0,0,1-.17-1.37,5.05,5.05,0,0,1,.17-1.36,2.12,2.12,0,0,1,.84-1.15,2.47,2.47,0,0,1,1.46-.43,2.55,2.55,0,0,1,1.48.43,2,2,0,0,1,.82,1.08,2.49,2.49,0,0,1,.09.37.12.12,0,0,1-.1.12l-.85.12h0c-.05,0-.09,0-.11-.1l0-.18a1,1,0,0,0-.44-.64,1.32,1.32,0,0,0-.84-.26,1.29,1.29,0,0,0-.83.26,1.21,1.21,0,0,0-.44.68,5,5,0,0,0-.1,1.07,5.11,5.11,0,0,0,.1,1.07,1.32,1.32,0,0,0,.45.71,1.29,1.29,0,0,0,.82.25,1.42,1.42,0,0,0,.85-.25,1.1,1.1,0,0,0,.44-.68,0,0,0,0,0,0,0,0,0,0,0,1,0,0v0a.09.09,0,0,1,.12-.07l.85.14q.09,0,.09.09v0a.69.69,0,0,1-.06.25,1.88,1.88,0,0,1-.82,1.1,2.62,2.62,0,0,1-1.48.42A2.48,2.48,0,0,1,141,35.69Z"/><path class="cls-2" d="M150.11,30.75a1.94,1.94,0,0,1,.54,1.45v3.72c0,.07,0,.11-.12.11h-.85c-.08,0-.12,0-.12-.11V32.41a1.27,1.27,0,0,0-.32-.91,1.12,1.12,0,0,0-.87-.35,1.15,1.15,0,0,0-.87.35,1.25,1.25,0,0,0-.34.9v3.52a.1.1,0,0,1-.11.11h-.86a.1.1,0,0,1-.11-.11V28.25a.1.1,0,0,1,.11-.11h.86a.1.1,0,0,1,.11.11v2.56s0,0,0,0,0,0,0,0a1.71,1.71,0,0,1,1.43-.62A2,2,0,0,1,150.11,30.75Z"/></svg>