<?xml version="1.0" encoding="utf-8"?>
<!-- Generator: Adobe Illustrator 24.1.2, SVG Export Plug-In . SVG Version: 6.00 Build 0)  -->
<svg version="1.1" id="Layer_1" xmlns="http://www.w3.org/2000/svg" xmlns:xlink="http://www.w3.org/1999/xlink" x="0px" y="0px"
	 viewBox="0 0 24 24" style="enable-background:new 0 0 24 24;" xml:space="preserve">
<style type="text/css">
	.st0{fill:#FFFFFF;}
</style>
<g>
	<path class="st0" d="M3,22c-0.3,0-0.5-0.1-0.7-0.3c-0.4-0.4-0.4-1,0-1.4l18-18c0.4-0.4,1-0.4,1.4,0s0.4,1,0,1.4l-18,18
		C3.5,21.9,3.3,22,3,22z"/>
</g>
<g>
	<path class="st0" d="M3,2C2.7,2,2.5,2.1,2.3,2.3c-0.4,0.4-0.4,1,0,1.4l18,18c0.4,0.4,1,0.4,1.4,0s0.4-1,0-1.4l-18-18
		C3.5,2.1,3.3,2,3,2z"/>
</g>
</svg>
