<svg id="a44ea562-9933-4a0b-a4c7-ca000d12b5e3" data-name="b3f26fed-c43f-4727-8bca-3f6b4433f2fb" xmlns="http://www.w3.org/2000/svg" width="86" height="86" viewBox="0 0 86 86">
  <defs>
    <style>
      .e108863c-99ec-4089-b13e-c82c6b605fde {
        fill: #337dff;
      }

      .a585e256-e0c7-4740-b2f8-0750395ed35e {
        fill: #ccc;
      }
    </style>
  </defs>
  <g>
    <path class="e108863c-99ec-4089-b13e-c82c6b605fde" d="M43,19.92A23.08,23.08,0,1,1,19.92,43,23.08,23.08,0,0,1,43,19.92h0M43,18A25,25,0,1,0,68,43,25,25,0,0,0,43,18Z"/>
    <path class="e108863c-99ec-4089-b13e-c82c6b605fde" d="M42.16,47c.21-.44.43-.86.66-1.29s.47-.84.73-1.26l8.82-15.17a1.6,1.6,0,0,1,1-.83,4,4,0,0,1,1.14-.16h5.07L56,57.15H50.34l2-16.78a6.15,6.15,0,0,1,.19-1.17c.09-.43.18-.88.28-1.34L44.15,52.74a2.53,2.53,0,0,1-1,1,3,3,0,0,1-1.38.33h-.88a2.51,2.51,0,0,1-1.31-.34,1.7,1.7,0,0,1-.78-1L33.88,37.82c0,.45-2.39,19.33-2.39,19.33H25.9l3.56-28.8H35.1a1.77,1.77,0,0,1,.56.09,1,1,0,0,1,.43.28,1.44,1.44,0,0,1,.29.58l5.07,15.18A20.28,20.28,0,0,1,42.16,47Z"/>
    <path class="a585e256-e0c7-4740-b2f8-0750395ed35e" d="M44.43,49.62c.07.23.13.46.19.71a11.39,11.39,0,0,1,.74-1.43l10-16a1,1,0,0,1,.5-.49,2.42,2.42,0,0,1,.71-.08H59L56,57.15H53.1L55.32,39a3.72,3.72,0,0,1,.12-.76c.06-.27.11-.56.17-.85L45.72,53.3a1.45,1.45,0,0,1-1.3.76H44a1.11,1.11,0,0,1-1.12-.76l-6.12-16v.84a3.13,3.13,0,0,1-.06.76L34.42,57.15H31.49l3.05-24.82H37a2.35,2.35,0,0,1,.7.08.75.75,0,0,1,.4.49l6.16,16C44.3,49.14,44.37,49.38,44.43,49.62Z"/>
  </g>
</svg>
