<?xml version="1.0" encoding="utf-8"?>
<!-- Generator: Adobe Illustrator 24.1.2, SVG Export Plug-In . SVG Version: 6.00 Build 0)  -->
<svg version="1.1" id="Layer_1" xmlns="http://www.w3.org/2000/svg" xmlns:xlink="http://www.w3.org/1999/xlink" x="0px" y="0px"
	 viewBox="0 0 24 24" style="enable-background:new 0 0 24 24;" xml:space="preserve">
<style type="text/css">
	.st0{fill:#FFFFFF;}
</style>
<g>
	<path class="st0" d="M21.1,13H2.9C2.4,13,2,12.6,2,12s0.4-1,0.9-1h18.2c0.5,0,0.9,0.4,0.9,1S21.6,13,21.1,13z"/>
</g>
<g>
	<path class="st0" d="M21.1,6H2.9C2.4,6,2,5.6,2,5s0.4-1,0.9-1h18.2C21.6,4,22,4.4,22,5S21.6,6,21.1,6z"/>
</g>
<g>
	<path class="st0" d="M21.1,20H2.9C2.4,20,2,19.6,2,19s0.4-1,0.9-1h18.2c0.5,0,0.9,0.4,0.9,1S21.6,20,21.1,20z"/>
</g>
</svg>
