<?xml version="1.0" encoding="utf-8"?>
<!-- Generator: Adobe Illustrator 24.1.2, SVG Export Plug-In . SVG Version: 6.00 Build 0)  -->
<svg version="1.1" id="Layer_1" xmlns="http://www.w3.org/2000/svg" xmlns:xlink="http://www.w3.org/1999/xlink" x="0px" y="0px"
	 viewBox="0 0 24 24" style="enable-background:new 0 0 24 24;" xml:space="preserve">
<style type="text/css">
	.st0{fill:#337DFF;}
	.st1{fill:#FFFFFF;}
</style>
<rect class="st0" width="24" height="24"/>
<path class="st1" d="M22,17c0,2.8-2.3,5-5,5H7c-2.8,0-5-2.3-5-5V7c0-2.8,2.3-5,5-5h10c2.8,0,5,2.3,5,5V17L22,17z"/>
<path class="st0" d="M17,4.1H7C5.4,4.1,4.1,5.4,4.1,7v10c0,1.6,1.3,2.9,2.9,2.9h10c1.6,0,2.9-1.3,2.9-2.9V7
	C19.9,5.5,18.5,4.1,17,4.1z"/>
<path class="st1" d="M12,17.1c-2.9,0-5.1-2.4-5.1-5.1c0-2.9,2.4-5.1,5.1-5.1c2.9,0,5.1,2.4,5.1,5.1C17.1,14.9,14.9,17.1,12,17.1z"/>
<circle class="st1" cx="17.4" cy="6.6" r="1.3"/>
<path class="st0" d="M12,9c-1.6,0-3,1.4-3,3s1.4,3,3,3s3-1.4,3-3S13.6,9,12,9z"/>
</svg>
