<?xml version="1.0" encoding="utf-8"?>
<!-- Generator: Adobe Illustrator 24.1.2, SVG Export Plug-In . SVG Version: 6.00 Build 0)  -->
<svg version="1.1" id="Layer_1" xmlns="http://www.w3.org/2000/svg" xmlns:xlink="http://www.w3.org/1999/xlink" x="0px" y="0px"
	 viewBox="0 0 24 24" style="enable-background:new 0 0 24 24;" xml:space="preserve">
<style type="text/css">
	.st0{fill:#337DFF;}
	.st1{fill:#FFFFFF;}
</style>
<rect y="0" class="st0" width="24" height="24"/>
<path class="st0" d="M17,4.1H7C5.4,4.1,4.1,5.4,4.1,7v10c0,1.6,1.3,2.9,2.9,2.9h10c1.6,0,2.9-1.3,2.9-2.9V7
	C19.9,5.5,18.5,4.1,17,4.1z"/>
<path class="st0" d="M12,9c-1.6,0-3,1.4-3,3s1.4,3,3,3s3-1.4,3-3S13.6,9,12,9z"/>
<g>
	<path class="st1" d="M16.5,3h-9C5.1,3,3,5,3,7.5v9C3,18.9,5,21,7.5,21h9c2.4,0,4.5-2,4.5-4.5v-9C21,5.1,19,3,16.5,3z M19.1,16.5
		c0,1.4-1.2,2.6-2.6,2.6h-9c-1.4,0-2.6-1.2-2.6-2.6v-9c0-1.4,1.2-2.6,2.6-2.6h9c1.4,0,2.6,1.3,2.6,2.6V16.5z"/>
	<circle class="st1" cx="16.9" cy="7.1" r="1.2"/>
	<path class="st1" d="M12,7.4c-2.4,0-4.6,2-4.6,4.6c0,2.4,2,4.6,4.6,4.6s4.6-2,4.6-4.6C16.6,9.6,14.6,7.4,12,7.4z M12,14.7
		c-1.4,0-2.7-1.3-2.7-2.7s1.3-2.7,2.7-2.7s2.7,1.3,2.7,2.7S13.4,14.7,12,14.7z"/>
</g>
</svg>
