<?xml version="1.0" encoding="utf-8"?>
<!-- Generator: Adobe Illustrator 24.1.2, SVG Export Plug-In . SVG Version: 6.00 Build 0)  -->
<svg version="1.1" id="Capa_1" xmlns="http://www.w3.org/2000/svg" xmlns:xlink="http://www.w3.org/1999/xlink" x="0px" y="0px"
	 viewBox="0 0 24 24" style="enable-background:new 0 0 24 24;" xml:space="preserve">
<style type="text/css">
	.st0{fill:#337DFF;}
	.st1{fill:#FFFFFF;}
</style>
<rect y="0" class="st0" width="24" height="24"/>
<path class="st1" d="M20.5,4.8H3.6C3.3,4.8,3,5.1,3,5.4v13.1c0,0.4,0.3,0.6,0.6,0.6h16.7c0.4,0,0.6-0.3,0.6-0.6V5.4
	C21,5.1,20.7,4.8,20.5,4.8z M18.8,6.6L12,11.1L5.3,6.6H18.8z M19.1,17.4H4.8v-9l6.9,4.4c0.1,0.1,0.2,0.2,0.3,0.2
	c0.2,0,0.2,0,0.3-0.1l6.8-4.5C19.1,8.4,19.1,17.4,19.1,17.4z"/>
</svg>
