<?xml version="1.0" encoding="utf-8"?>
<!-- Generator: Adobe Illustrator 24.1.2, SVG Export Plug-In . SVG Version: 6.00 Build 0)  -->
<svg version="1.1" id="Capa_1" xmlns="http://www.w3.org/2000/svg" xmlns:xlink="http://www.w3.org/1999/xlink" x="0px" y="0px"
	 viewBox="0 0 24 24" style="enable-background:new 0 0 24 24;" xml:space="preserve">
<style type="text/css">
	.st0{fill:#CCCCCC;}
	.st1{fill:#FAFAFA;}
</style>
<rect class="st0" width="24" height="24"/>
<g>
	<path class="st1" d="M21.2,6.3c-0.5-1-1.1-1.1-2.3-1.2C17.7,5,14.6,5,12,5S6.3,5,5.1,5.1S3.3,5.4,2.7,6.3c-0.5,1-0.8,2.9-0.8,5.7
		c0,2.9,0.3,4.6,0.8,5.6s1.1,1.1,2.3,1.2s4.2,0.1,6.9,0.1s5.7,0,6.9-0.1s1.8-0.3,2.3-1.2c0.6-1,0.8-3.4,0.8-5.6
		C21.9,9.1,21.8,7.4,21.2,6.3z"/>
	<polygon class="st0" points="9.5,15.8 9.5,8.3 15.8,12 	"/>
</g>
</svg>
