<?xml version="1.0" encoding="utf-8"?>
<!-- Generator: Adobe Illustrator 24.1.2, SVG Export Plug-In . SVG Version: 6.00 Build 0)  -->
<svg version="1.1" id="Capa_1" xmlns="http://www.w3.org/2000/svg" xmlns:xlink="http://www.w3.org/1999/xlink" x="0px" y="0px"
	 viewBox="0 0 24 24" style="enable-background:new 0 0 24 24;" xml:space="preserve">
<style type="text/css">
	.st0{fill:#FAFAFA;}
</style>
<path class="st0" d="M20.3,6.9c-0.5-0.9-1-1-2.1-1.1c-1.1-0.1-3.9-0.1-6.2-0.1s-5.1,0-6.2,0.1C4.7,5.9,4.2,6.1,3.6,6.9
	C3.2,7.8,2.9,9.5,2.9,12c0,2.6,0.3,4.1,0.7,5s1,1,2.1,1.1c1.1,0.1,3.8,0.1,6.2,0.1c2.4,0,5.1,0,6.2-0.1c1.1-0.1,1.6-0.3,2.1-1.1
	c0.5-0.9,0.7-3.1,0.7-5C20.9,9.4,20.8,7.9,20.3,6.9z M9.7,15.4V8.7l5.7,3.3L9.7,15.4z"/>
</svg>
